<?xml version="1.0" encoding="UTF-8"?>
<!DOCTYPE svg PUBLIC "-//W3C//DTD SVG 1.1//EN" "http://www.w3.org/Graphics/SVG/1.1/DTD/svg11.dtd">
<!-- Creator: CorelDRAW (Versión de evaluación) -->
<svg xmlns="http://www.w3.org/2000/svg" xml:space="preserve" width="31.75mm" height="23.8124mm" version="1.1" style="shape-rendering:geometricPrecision; text-rendering:geometricPrecision; image-rendering:optimizeQuality; fill-rule:evenodd; clip-rule:evenodd"
viewBox="0 0 3175 2381.24"
 xmlns:xlink="http://www.w3.org/1999/xlink"
 xmlns:xodm="http://www.corel.com/coreldraw/odm/2003">
 <defs>
  <style type="text/css">
   <![CDATA[
    .str2 {stroke:black;stroke-width:25;stroke-miterlimit:22.9256}
    .str1 {stroke:red;stroke-width:25;stroke-miterlimit:22.9256}
    .str3 {stroke:white;stroke-width:25;stroke-miterlimit:22.9256}
    .str0 {stroke:#373435;stroke-width:20;stroke-miterlimit:22.9256}
    .fil0 {fill:none}
    .fil2 {fill:black}
    .fil1 {fill:red}
    .fil3 {fill:white}
   ]]>
  </style>
 </defs>
 <g id="Capa_x0020_1">
  <metadata id="CorelCorpID_0Corel-Layer"/>
  <path class="fil0 str0" d="M-1666.87 3227.91c-1506.95,66.16 -2291.88,-815.78 -2354.79,-2645.83 236.57,-1360.95 809.83,-2119.42 1719.79,-2275.42"/>
  <path class="fil0 str0" d="M-2446.21 -1662.83c872.97,-286.32 1714.83,-287.67 2525.59,-4.05 738.97,-945.17 1620.91,-1474.34 2645.84,-1587.5 1402.64,39.59 2355.14,568.76 2857.5,1587.5 1632.21,-387.11 2761.1,-210.72 3386.67,529.17 757.65,1151.01 925.22,2165.25 502.71,3042.7"/>
  <polygon class="fil1 str1" points="3686.18,5209.64 3686.18,4447.64 2924.18,4447.64 2924.18,5209.64 "/>
  <path class="fil2 str2" d="M396.88 -370.42c624.79,-969.12 1409.72,-1568.84 2354.8,-1799.17 582.83,-128.26 1429.5,462.65 2540,1772.71 492.93,-302.84 1189.66,-373.39 2090.21,-211.67 941.68,215.18 1391.47,832.54 1349.37,1852.09 -527.69,908.44 -1392,1014.28 -2592.92,317.5 -4.16,35.35 22.3,767.36 79.38,2196.04 97.29,457.72 450.07,634.11 1058.33,529.17 0,0 8.82,-343.96 26.46,-1031.88 1124.82,231.96 1883.06,-303.08 2274.71,-1605.14 279.9,-817.13 77.29,-1746.12 -607.83,-2786.94 -625.57,-739.89 -1754.46,-916.28 -3386.67,-529.17 -502.36,-1018.74 -1454.86,-1547.91 -2857.5,-1587.5 -1024.93,113.16 -1906.87,642.33 -2645.84,1587.5 -810.76,-283.62 -1652.62,-282.27 -2525.59,4.05 -826.5,209.08 -1351.64,957.38 -1575.45,2244.91 62.91,1830.05 847.84,2711.99 2354.79,2645.83 0,0 44.1,343.96 132.29,1031.88 395.09,159.25 712.59,-43.6 952.5,-608.54 0,0 0,-652.64 0,-1957.92 -641.83,322.07 -1259.19,383.81 -1852.08,185.21 -737.51,-308.7 -843.34,-952.52 -317.5,-1931.46 802.62,-689.85 1852.14,-795.68 3148.54,-317.5z"/>
  <polygon class="fil1 str1" points="2647.69,5216.25 2647.69,4454.25 1885.69,4454.25 1885.69,5216.25 "/>
  <polygon class="fil1 str1" points="2647.69,6274.59 2647.69,5512.59 1885.69,5512.59 1885.69,6274.59 "/>
  <polygon class="fil1 str1" points="3706.02,6274.59 3706.02,5512.59 2944.02,5512.59 2944.02,6274.59 "/>
  <path class="fil0 str0" d="M-3425.23 -992.88c-800.04,1157.28 -868.77,2193.79 -206.19,3109.52"/>
  <path class="fil0 str0" d="M8213.26 -214.95c590.69,724.67 672.95,1378.39 246.79,1961.17"/>
  <path class="fil2 str2" d="M-3836.31 1785.72c-107.7,-340.92 -169.49,-742.13 -185.35,-1203.64 94.72,-544.89 243.41,-993.21 446.07,-1344.95 -572.28,929.69 -659.19,1779.22 -260.72,2548.59z"/>
  <path class="fil2 str2" d="M8213.26 -214.95c291.67,357.83 459.38,698.36 503.12,1021.6 -52.06,-435.09 -219.77,-775.62 -503.12,-1021.6z"/>
  <path class="fil2 str2" d="M8725.36 896.2c9.89,152.73 -8.45,301.53 -55.03,446.38 20.78,-31.88 41.09,-64.89 60.93,-99.04 5.02,-121.49 3.05,-237.27 -5.9,-347.34z"/>
  <path class="fil2 str2" d="M8725.37 896.41c8.94,110.01 10.9,225.72 5.89,347.13 -19.84,34.15 -40.15,67.16 -60.93,99.04 -532.21,816.22 -1376.21,889.05 -2531.99,218.46 -4.16,35.35 22.3,767.36 79.38,2196.04 97.29,457.72 450.07,634.11 1058.33,529.17 0,0 8.82,-343.96 26.46,-1031.88 1124.82,231.96 1883.06,-303.08 2274.71,-1605.14 279.9,-817.13 77.29,-1746.12 -607.83,-2786.94 -625.57,-739.89 -1754.46,-916.28 -3386.67,-529.17 -502.36,-1018.74 -1454.86,-1547.91 -2857.5,-1587.5 -1024.93,113.16 -1906.87,642.33 -2645.84,1587.5 -810.76,-283.62 -1652.62,-282.27 -2525.59,4.05 -395.26,99.99 -721.6,323.31 -979.02,669.95 -53.37,77.21 -103.49,153.88 -150.36,230.01 -202.66,351.74 -351.35,800.06 -446.07,1344.95 15.86,461.51 77.65,862.72 185.35,1203.64 319.37,1010.94 1042.52,1491.67 2169.44,1442.19 0,0 44.1,343.96 132.29,1031.88 395.09,159.25 712.59,-43.6 952.5,-608.54 0,0 0,-652.64 0,-1957.92 -641.83,322.07 -1259.19,383.81 -1852.08,185.21 -737.51,-308.7 -843.34,-952.52 -317.5,-1931.46 802.62,-689.85 1852.14,-795.68 3148.54,-317.5 624.79,-969.12 1409.72,-1568.84 2354.8,-1799.17 582.83,-128.26 1429.5,462.65 2540,1772.71 492.93,-302.84 1189.66,-373.39 2090.21,-211.67 342.01,78.15 619.13,209.35 831.37,393.6 283.35,245.98 451.06,586.51 503.12,1021.6 4.06,30 7.05,59.85 8.98,89.55 0.01,0.07 0.01,0.14 0.01,0.21z"/>
  <polyline class="fil0 str0" points="-1293.42,4312.26 -248.08,4216.76 2477.14,1709.82 "/>
  <polyline class="fil0 str0" points="6894.78,4313.9 5625.69,4183.68 2477.14,1709.82 "/>
  <path class="fil2 str3" d="M5625.69 4183.68l1154.59 118.47c-308.18,-48.82 -495.7,-230.51 -562.56,-545.07 -57.08,-1428.68 -83.54,-2160.69 -79.38,-2196.04 1155.78,670.59 1999.78,597.76 2531.99,-218.46 46.56,-144.79 64.9,-293.51 55.04,-446.17l-0.02 -0.21 -8.97 -89.55c-43.74,-323.24 -211.45,-663.77 -503.12,-1021.6 -212.24,-184.25 -489.36,-315.45 -831.37,-393.6 -900.55,-161.72 -1597.28,-91.17 -2090.21,211.67 -1110.5,-1310.06 -1957.17,-1900.97 -2540,-1772.71 -945.08,230.33 -1730.01,830.05 -2354.8,1799.17 -1296.4,-478.18 -2345.92,-372.35 -3148.54,317.5 -525.84,978.94 -420.01,1622.76 317.5,1931.46 592.89,198.6 1210.25,136.86 1852.08,-185.21 0,1305.28 0,1957.92 0,1957.92 -163.91,385.99 -364.05,602.94 -600.4,650.87l934.4 -85.36 2725.22 -2506.94 3148.55 2473.86z"/>
  <path class="fil3 str3" d="M5625.69 4183.68l1154.57 118.47c-308.17,-48.83 -495.68,-230.52 -562.54,-545.07 -57.08,-1428.68 -83.54,-2160.69 -79.38,-2196.04 1155.78,670.59 1999.78,597.76 2531.99,-218.46 46.56,-144.79 64.9,-293.51 55.04,-446.17l-0.02 -0.21 -8.97 -89.55c-43.74,-323.24 -211.45,-663.77 -503.12,-1021.6 -212.24,-184.25 -489.36,-315.45 -831.37,-393.6 -900.55,-161.72 -1597.28,-91.17 -2090.21,211.67 -1110.5,-1310.06 -1957.17,-1900.97 -2540,-1772.71 -945.08,230.33 -1730.01,830.05 -2354.8,1799.17 -1296.4,-478.18 -2345.92,-372.35 -3148.54,317.5 -525.84,978.94 -420.01,1622.76 317.5,1931.46 592.89,198.6 1210.25,136.86 1852.08,-185.21 0,1305.28 0,1957.92 0,1957.92 -163.91,385.99 -364.05,602.94 -600.4,650.87l934.4 -85.36 2725.22 -2506.94 3148.55 2473.86z"/>
  <path class="fil1 str1" d="M2774.95 2329.38c2222.5,1534.58 3333.75,2301.87 3333.75,2301.87l317.5 926.05 1772.71 1455.2 145.52 -198.43 -1587.5 -1309.69 251.35 -304.27 1574.27 1322.92 185.21 -211.67 -1600.73 -1309.69 238.13 -251.35 1640.41 1309.68 119.07 -198.43 -1799.17 -1455.21 -965.73 -132.29c0,0 -952.5,-917.22 -2857.5,-2751.67 -282.48,-260.9 -547.06,-296.18 -793.75,-105.84 -266.88,-188.38 -522.65,-157.51 -767.29,92.61 -1931.46,1852.09 -2897.19,2778.13 -2897.19,2778.13l-939.27 119.06 -1799.17 1455.21 158.75 171.98 1587.5 -1283.23 251.35 304.27 -1587.5 1283.23 132.29 198.43 1613.96 -1296.45 264.59 317.5 -1587.5 1309.68 158.75 145.52 1759.48 -1428.75 304.27 -912.81c0,0 1124.48,-780.52 3373.44,-2341.56z"/>
 </g>
</svg>
